<svg width="10" height="16" viewBox="0 0 10 16" fill="currentColor" xmlns="http://www.w3.org/2000/svg">
<path d="M0.646447 14.6464C0.451184 14.8417 0.451184 15.1583 0.646447 15.3536C0.841709 15.5488 1.15829 15.5488 1.35355 15.3536L0.646447 14.6464ZM8.5 5C8.5 5.87535 8.17086 6.78414 7.60495 7.70747C7.03993 8.62934 6.25752 9.53538 5.39645 10.3964C4.53663 11.2563 3.61224 12.0578 2.76952 12.7756C1.93709 13.4847 1.16475 14.1281 0.646447 14.6464L1.35355 15.3536C1.83525 14.8719 2.56291 14.2653 3.41798 13.5369C4.26276 12.8172 5.21337 11.9937 6.10355 11.1036C6.99248 10.2146 7.83507 9.24566 8.45755 8.23003C9.07914 7.21586 9.5 6.12465 9.5 5H8.5ZM5 1.5C6.933 1.5 8.5 3.067 8.5 5H9.5C9.5 2.51472 7.48528 0.5 5 0.5V1.5ZM2.68504 2.37487C3.30234 1.83003 4.11202 1.5 5 1.5V0.5C3.85909 0.5 2.81628 0.925239 2.02331 1.62513L2.68504 2.37487Z" fill="currentColor"/>
</svg>
